<svg width="960" height="960" viewBox="0 0 960 960" fill="none" xmlns="http://www.w3.org/2000/svg">
<g clip-path="url(#clip0_46_7749)">
<g clip-path="url(#clip1_46_7749)">
<path fill-rule="evenodd" clip-rule="evenodd" d="M766.896 776.646C767.496 774.226 768.096 771.656 767.306 769.306C765.936 765.206 761.106 763.5 756.836 762.856C750.003 761.823 743.082 762.067 736.153 762.312C731.877 762.463 727.599 762.614 723.336 762.466C712.166 762.076 700.206 759.106 693.136 750.436L691.806 750.016C690.355 754.758 688.013 759.18 684.906 763.046C678.916 770.546 670.656 775.946 661.996 780.076C659.554 781.247 657.05 782.285 654.496 783.186C659.039 790.389 663.586 797.596 668.136 804.806C671.686 810.436 675.616 816.396 681.756 818.956C688.106 821.606 695.336 820.026 702.026 818.406C712.333 815.902 722.636 813.406 732.936 810.916C741.086 808.946 749.626 806.756 755.696 800.976C762.256 794.726 764.716 785.436 766.896 776.646ZM697.702 758.154C696.994 757.724 696.071 757.95 695.642 758.658C695.212 759.366 695.437 760.289 696.145 760.719C713.381 771.181 733.684 775.411 753.663 772.703C754.484 772.592 755.06 771.836 754.948 771.015C754.837 770.194 754.081 769.619 753.26 769.73C733.962 772.346 714.35 768.26 697.702 758.154Z" fill="#171717"/>
<path fill-rule="evenodd" clip-rule="evenodd" d="M622.09 782.716C631.88 788.136 643.72 786.966 654.5 783.186C657.054 782.286 659.558 781.25 662 780.081C670.66 775.951 678.92 770.551 684.91 763.051C688.017 759.186 690.359 754.763 691.81 750.021C693.208 745.568 693.571 740.854 692.87 736.24C691.24 726.09 684.28 717.72 677.6 709.9L629.87 654.126L629.57 654.086C627.35 669.316 614.16 681.216 601.95 691.216C591.89 699.456 580.79 708.036 568.66 711.646L568.84 712.266C580.877 729.699 592.91 747.136 604.94 764.576C609.71 771.486 614.74 778.646 622.09 782.716ZM634.523 671.632C634.029 670.967 633.089 670.828 632.424 671.322C631.759 671.816 631.62 672.755 632.114 673.421L678.74 736.221C679.234 736.886 680.173 737.025 680.839 736.531C681.504 736.037 681.643 735.097 681.149 734.432L634.523 671.632Z" fill="white"/>
<path fill-rule="evenodd" clip-rule="evenodd" d="M418.865 368.666L418.665 369.766C395.625 365.566 369.825 373.586 352.365 389.166C344.167 396.555 337.366 405.359 332.285 415.156C326.444 426.366 322.629 438.519 321.015 451.056C319.538 462.038 319.831 473.187 321.885 484.076C323.485 492.527 326.358 500.686 330.405 508.276C330.595 508.656 330.805 509.036 331.015 509.406C337.817 521.621 348.001 531.611 360.345 538.176C362.494 539.299 364.708 540.294 366.975 541.156C370.474 542.504 374.094 543.516 377.785 544.176C387.595 545.936 398.855 544.736 405.655 537.436C405.955 537.116 406.245 536.786 406.515 536.446C411.185 530.756 412.555 522.936 413.035 515.526C413.575 507.446 412.745 498.306 408.365 491.926C406.942 489.822 405.083 488.049 402.915 486.726C400.926 485.56 398.766 484.713 396.515 484.216C394.423 483.721 392.256 483.412 390.085 483.103C386.163 482.544 382.225 481.983 378.685 480.316C376.707 479.373 374.893 478.116 373.315 476.596C369.987 473.321 367.558 469.243 366.265 464.756C364.305 458.206 364.415 451.216 365.185 444.416C366.195 435.406 368.615 425.986 375.165 419.706C381.545 413.586 390.695 411.506 399.345 409.686C404.942 408.503 410.535 407.326 416.125 406.156L582.345 371.146L582.255 370.706C603.375 330.666 616.315 290.296 621.705 245.356C622.985 234.726 623.325 222.786 616.395 214.636C612.225 209.736 605.975 207.056 599.555 206.226C598.505 206.086 597.455 206.006 596.405 205.966C588.935 205.696 581.565 207.606 574.425 209.806C570.805 210.926 566.975 212.296 564.645 215.206C564.484 215.397 564.334 215.598 564.195 215.806C561.155 220.276 562.495 226.256 563.755 231.506C568.515 251.296 570.475 271.986 567.205 292.066C563.935 312.146 555.175 331.636 540.685 345.926C526.195 360.216 505.695 368.826 485.425 367.056C484.997 365.285 485.503 363.816 486.03 362.284C486.414 361.168 486.81 360.019 486.865 358.696C486.995 355.556 486.315 352.006 483.725 350.226C481.775 348.876 479.225 348.876 476.855 348.916C475.349 348.946 473.844 348.973 472.338 349L472.31 349.001L472.282 349.001H472.281C470.776 349.029 469.27 349.056 467.765 349.086C456.295 349.306 444.825 349.516 433.355 349.716L430.175 349.776C427.997 349.667 425.821 350.014 423.785 350.796C420.775 352.216 418.965 355.466 418.405 358.746C417.845 362.026 418.355 365.376 418.865 368.666ZM614.232 221.166C614.193 220.339 613.49 219.7 612.662 219.74C611.835 219.78 611.196 220.483 611.236 221.31C613.615 270.777 601.11 319.82 575.334 362.108C574.903 362.815 575.127 363.738 575.835 364.169C576.542 364.6 577.465 364.376 577.896 363.669C603.984 320.869 616.641 271.232 614.232 221.166ZM478.973 350.55C479.69 350.135 480.607 350.381 481.022 351.098C482.152 353.051 482.743 355.27 482.736 357.527C482.729 359.784 482.123 361.998 480.981 363.945C480.562 364.659 479.643 364.899 478.928 364.479C478.214 364.06 477.975 363.141 478.394 362.426C479.268 360.938 479.731 359.244 479.736 357.517C479.742 355.791 479.289 354.094 478.425 352.6C478.01 351.882 478.255 350.965 478.973 350.55ZM394.057 403.034C394.836 402.752 395.239 401.892 394.957 401.113C394.675 400.334 393.815 399.931 393.036 400.213C379.552 405.093 367.57 414.616 360.654 427.274C353.739 439.93 352.224 455.678 357.606 469.146C362.986 482.612 375.478 493.272 389.899 495.491C390.718 495.617 391.484 495.055 391.61 494.236C391.736 493.417 391.174 492.651 390.356 492.525C377.069 490.482 365.411 480.594 360.391 468.032C355.373 455.472 356.76 440.658 363.287 428.712C369.813 416.768 381.181 407.694 394.057 403.034Z" fill="#171717"/>
<path fill-rule="evenodd" clip-rule="evenodd" d="M284.207 672.605C288.637 678.695 294.627 683.415 300.667 687.935L301.867 688.835C327.047 707.585 353.387 725.855 383.467 734.835C385.527 735.452 387.607 736.015 389.707 736.525C418.277 743.515 450.077 740.945 473.597 723.565C476.402 721.492 479.129 719.199 481.861 716.904C489.932 710.121 498.039 703.308 508.267 702.015C517.114 700.9 525.489 704.204 533.938 707.538C540.407 710.09 546.918 712.66 553.717 713.275C558.756 713.693 563.827 713.14 568.657 711.645C580.787 708.035 591.887 699.455 601.947 691.215C614.157 681.215 627.347 669.315 629.567 654.085C629.75 652.836 629.857 651.577 629.887 650.315C630.287 632.835 615.937 619.035 603.087 607.175C582.927 588.575 563.507 568.585 550.207 544.605C536.907 520.625 529.187 492.875 535.697 466.235L535.677 465.815C521.392 466.443 507.069 466.758 492.746 467.073C460.727 467.777 428.71 468.481 397.127 472.675C397.958 476.311 397.796 480.104 396.657 483.655L396.517 484.215C398.769 484.712 400.928 485.559 402.917 486.725C405.085 488.048 406.944 489.822 408.367 491.925L409.087 491.415C415.627 489.572 422.164 487.725 428.697 485.875C430.315 485.274 432.055 485.075 433.767 485.295C435.447 485.655 437.027 487.135 436.857 488.845C436.618 490.028 435.948 491.079 434.977 491.795C430.427 495.875 424.447 499.155 418.337 499.355C424.102 500.686 430.028 500.982 435.957 501.278C441.566 501.558 447.178 501.838 452.657 502.995C455.237 503.545 458.277 504.835 458.517 507.465C458.787 510.285 455.677 512.085 453.057 513.145L453.067 513.715C454.67 513.6 456.28 513.797 457.807 514.295C458.697 514.496 459.504 514.963 460.12 515.636C460.736 516.308 461.131 517.152 461.253 518.056C461.375 518.96 461.217 519.879 460.802 520.69C460.386 521.502 459.732 522.167 458.927 522.595C457.491 523.473 455.915 524.099 454.267 524.445L454.247 524.865C455.537 524.868 456.815 525.109 458.017 525.575C458.854 525.882 459.585 526.425 460.119 527.138C460.653 527.852 460.969 528.706 461.027 529.595C460.946 530.349 460.703 531.076 460.314 531.726C459.926 532.377 459.402 532.936 458.777 533.365C456.017 535.545 452.397 536.245 448.917 536.755C434.987 538.784 420.838 538.787 406.907 536.765L406.517 536.445C406.247 536.785 405.957 537.115 405.657 537.435C398.857 544.735 387.597 545.935 377.787 544.175C374.096 543.515 370.476 542.504 366.977 541.155L366.857 541.465C350.626 575.03 326.981 604.467 297.707 627.555C297.334 627.849 296.959 628.143 296.582 628.438C289.017 634.37 280.923 640.716 278.627 649.975C276.697 657.765 279.477 666.125 284.207 672.605ZM524.083 479.677C524.047 478.85 523.348 478.207 522.52 478.243C521.693 478.278 521.05 478.977 521.085 479.805C523.787 543.249 561.437 604.069 617.017 634.779C617.742 635.18 618.654 634.917 619.055 634.192C619.456 633.467 619.193 632.554 618.467 632.153C563.803 601.949 526.739 542.076 524.083 479.677Z" fill="#171717"/>
<path d="M485.4 313.399C486.83 301.119 488.264 288.836 489.7 276.549L489.76 276.369C490.04 276.469 490.31 276.569 490.59 276.669C490.6 276.619 490.6 276.559 490.61 276.509L490.97 276.559C494.265 279.718 496.995 283.419 499.04 287.499C500.13 289.669 501.04 292.139 500.4 294.479C499.76 296.819 496.92 298.649 494.82 297.429C496.495 298.965 497.91 300.761 499.01 302.749C499.553 303.747 499.85 304.86 499.876 305.996C499.902 307.132 499.656 308.257 499.16 309.279C498.05 311.259 495.29 312.309 493.36 311.109C495.68 313.319 494.73 317.879 491.73 318.979C488.73 320.079 485.06 317.239 485.38 314.059L485.32 314.049C485.346 313.825 485.366 313.615 485.4 313.399Z" fill="#171717"/>
<path d="M490.605 276.505C490.595 276.555 490.595 276.615 490.585 276.665C490.305 276.565 490.035 276.465 489.755 276.365C479.725 272.765 469.275 270.015 458.625 269.925C453.051 269.853 447.497 270.628 442.155 272.225C436.986 273.761 432.159 276.272 427.935 279.625L427.665 279.605C427.664 279.581 427.667 279.558 427.675 279.535C427.845 276.285 428.035 273.015 428.225 269.765L394.025 256.115L444.145 212.825L526.255 245.295L492.145 265.325C491.635 269.055 491.122 272.782 490.605 276.505Z" fill="#171717"/>
<path d="M427.676 279.536C427.668 279.558 427.665 279.582 427.666 279.606L427.936 279.626C432.16 276.273 436.987 273.761 442.156 272.226L442.396 273.046C442.715 284.295 440.529 295.475 435.996 305.776C435.088 308.196 433.649 310.383 431.786 312.176C431.447 312.463 431.086 312.724 430.706 312.956C429.819 313.547 428.8 313.914 427.739 314.023C426.678 314.133 425.606 313.983 424.616 313.586C423.716 313.123 422.941 312.448 422.361 311.619C421.781 310.789 421.412 309.83 421.286 308.826C421.068 306.806 421.503 304.77 422.526 303.016C422.146 303.241 421.725 303.388 421.287 303.45C420.85 303.511 420.404 303.485 419.977 303.374C419.549 303.262 419.148 303.067 418.796 302.8C418.444 302.532 418.148 302.198 417.926 301.816C417.52 301.018 417.332 300.126 417.383 299.231C417.434 298.337 417.722 297.472 418.216 296.726C419.225 295.24 420.585 294.027 422.176 293.196C420.668 293.484 419.118 293.467 417.616 293.146C416.87 292.967 416.191 292.575 415.664 292.018C415.137 291.46 414.783 290.761 414.646 290.006C414.668 289.303 414.832 288.612 415.128 287.975C415.423 287.337 415.845 286.766 416.366 286.296C419.349 283.027 423.204 280.678 427.477 279.526L427.676 279.536Z" fill="#171717"/>
<path d="M397.126 472.676C397.958 476.312 397.795 480.104 396.656 483.656L396.516 484.216C390.646 482.826 384.186 482.906 378.686 480.316C376.708 479.372 374.895 478.116 373.316 476.596L373.346 476.556C381.236 475.006 389.163 473.712 397.126 472.676Z" fill="white"/>
<path d="M397.125 472.675C389.165 473.725 381.238 475.019 373.345 476.555L373.315 476.595C369.987 473.32 367.559 469.242 366.265 464.755C364.305 458.205 364.415 451.215 365.185 444.415C366.195 435.405 368.615 425.985 375.165 419.705C381.545 413.585 390.695 411.505 399.345 409.685C404.935 408.505 410.528 407.329 416.125 406.155L416.245 406.735C405.827 413.45 398.122 423.635 394.495 435.486C390.867 447.337 391.551 460.09 396.425 471.485L397.055 472.355C397.085 472.465 397.105 472.565 397.125 472.675Z" fill="white"/>
<path d="M389.706 736.526L389.566 737.086C383.716 746.606 373.246 752.186 363.006 756.676C345.256 764.466 326.586 770.386 307.346 772.755C288.106 775.124 268.286 773.855 249.926 767.625C243.236 765.365 236.236 761.825 232.006 756.466C230.318 754.363 229.119 751.91 228.496 749.286C227.276 744.046 228.636 738.566 230.326 733.456C234.419 721.071 240.443 709.411 248.176 698.906C248.996 697.796 249.856 696.677 250.766 695.617C253.536 692.387 256.776 689.587 260.826 688.547C265.496 687.337 270.436 688.687 274.956 690.367C279.476 692.047 284.006 694.077 288.826 694.267C293.586 694.457 298.836 692.317 300.666 687.937L301.866 688.836C327.046 707.586 353.386 725.856 383.466 734.836C385.526 735.456 387.606 736.019 389.706 736.526Z" fill="white"/>
<path d="M316.106 528.545C323.716 524.715 331.216 516.815 330.256 508.355L330.406 508.275C330.596 508.655 330.806 509.035 331.016 509.405C337.817 521.62 348.002 531.61 360.346 538.175L359.976 538.905C350.071 550.99 336.131 559.084 320.726 561.695C305.886 564.135 289.436 561.625 276.816 569.805C264.986 577.475 260.996 593.175 258.106 607.005L257.486 606.875C253.872 595.368 251.498 583.507 250.406 571.495C242.026 578.905 233.652 586.315 225.286 593.725L224.766 593.635C226.646 581.465 231.666 568.885 237.796 558.235C244.016 547.415 253.776 538.225 265.766 534.765C273.946 532.405 282.626 532.785 291.146 532.805C299.666 532.825 308.5 532.365 316.106 528.545Z" fill="white"/>
<path d="M250.166 695.116L250.766 695.616C249.856 696.676 248.996 697.796 248.176 698.906C240.443 709.41 234.419 721.071 230.326 733.456C228.636 738.566 227.276 744.046 228.496 749.286C229.119 751.91 230.318 754.362 232.006 756.466L231.156 756.656C221.646 765.226 212.139 773.799 202.636 782.376C200.246 784.526 197.646 786.786 194.456 787.216C189.146 787.936 184.696 783.486 181.206 779.416C177.556 775.166 173.876 770.866 171.316 765.886C168.756 760.906 167.416 755.086 168.716 749.646C170.036 744.136 173.856 739.616 177.556 735.336C187.746 723.536 197.932 711.736 208.116 699.936C211.136 696.436 214.266 692.846 218.376 690.726C223.306 688.176 229.206 688.026 234.636 689.196C240.066 690.366 245.146 692.746 250.166 695.116Z" fill="#171717"/>
<path d="M427.665 279.645V279.605C427.664 279.581 427.667 279.558 427.675 279.535C427.845 276.285 428.035 273.015 428.225 269.765L394.025 256.115L444.145 212.825L526.255 245.295L492.145 265.325C491.635 269.055 491.122 272.782 490.605 276.505C490.595 276.555 490.595 276.615 490.585 276.665C490.305 276.565 490.035 276.465 489.755 276.365C479.725 272.765 469.275 270.015 458.625 269.925C453.051 269.853 447.497 270.628 442.155 272.225C436.986 273.761 432.159 276.272 427.935 279.625" stroke="#171717" stroke-width="3" stroke-linecap="round" stroke-linejoin="round"/>
<path d="M427.477 279.526C423.204 280.678 419.349 283.027 416.366 286.296C415.845 286.766 415.423 287.338 415.128 287.975C414.832 288.613 414.668 289.304 414.646 290.006C414.783 290.761 415.137 291.46 415.664 292.018C416.191 292.576 416.87 292.968 417.616 293.146C419.118 293.468 420.668 293.485 422.176 293.196C420.585 294.028 419.225 295.24 418.216 296.726C417.722 297.473 417.434 298.337 417.383 299.232C417.332 300.126 417.52 301.018 417.926 301.816C418.148 302.198 418.444 302.533 418.796 302.8C419.148 303.067 419.549 303.262 419.977 303.374C420.404 303.486 420.85 303.511 421.287 303.45C421.725 303.388 422.146 303.241 422.526 303.016C421.503 304.77 421.068 306.806 421.286 308.826C421.412 309.831 421.781 310.789 422.361 311.619C422.941 312.449 423.716 313.124 424.616 313.586C425.606 313.983 426.678 314.133 427.739 314.024C428.8 313.914 429.819 313.547 430.706 312.956C431.086 312.725 431.447 312.464 431.786 312.176C433.649 310.383 435.088 308.196 435.996 305.776C440.529 295.475 442.715 284.295 442.396 273.046" stroke="#171717" stroke-width="3" stroke-linecap="round" stroke-linejoin="round"/>
<path d="M445.945 285.825C446.206 285.159 446.631 284.57 447.181 284.112C447.73 283.654 448.386 283.342 449.089 283.205C449.791 283.068 450.516 283.111 451.198 283.33C451.879 283.549 452.494 283.936 452.985 284.455" stroke="#171717" stroke-width="3" stroke-linecap="round" stroke-linejoin="round"/>
<path d="M467.285 286.536C467.798 285.883 468.473 285.377 469.242 285.066C470.012 284.756 470.849 284.652 471.671 284.765C472.493 284.878 473.271 285.205 473.928 285.712C474.585 286.219 475.098 286.889 475.415 287.656" stroke="#171717" stroke-width="3" stroke-linecap="round" stroke-linejoin="round"/>
<path d="M456.436 311.375C458.676 310.755 460.926 310.135 463.166 309.505C461.936 298.935 461.169 288.329 460.866 277.685C467.539 277.03 474.274 277.401 480.836 278.785" stroke="#171717" stroke-width="3" stroke-linecap="round" stroke-linejoin="round"/>
<path d="M454.966 324.575C453.787 325.025 452.52 325.2 451.263 325.088C450.006 324.976 448.791 324.579 447.71 323.928C446.629 323.276 445.71 322.387 445.023 321.328C444.337 320.27 443.9 319.068 443.746 317.815" stroke="#171717" stroke-width="3" stroke-linecap="round" stroke-linejoin="round"/>
<path d="M431.1 313.546C432.621 325.244 433.369 337.029 433.34 348.826" stroke="#171717" stroke-width="3" stroke-linecap="round" stroke-linejoin="round"/>
<path d="M489.7 276.546C488.27 288.826 486.837 301.109 485.4 313.396C485.37 313.616 485.35 313.826 485.32 314.046C484.76 318.666 483.91 323.566 480.54 326.696C478.2 328.866 474.97 329.866 472.6 331.996C468.31 335.856 467.88 342.326 467.75 348.106" stroke="#171717" stroke-width="3" stroke-linecap="round" stroke-linejoin="round"/>
<path d="M490.965 276.556C494.26 279.715 496.989 283.415 499.035 287.496C500.125 289.666 501.035 292.136 500.395 294.476C499.755 296.816 496.915 298.646 494.815 297.426C496.49 298.961 497.905 300.758 499.005 302.746C499.548 303.744 499.844 304.857 499.87 305.993C499.896 307.128 499.651 308.254 499.155 309.276C498.045 311.256 495.285 312.306 493.355 311.106C495.675 313.316 494.725 317.876 491.725 318.976C488.725 320.076 485.055 317.236 485.375 314.056" stroke="#171717" stroke-width="3" stroke-linecap="round" stroke-linejoin="round"/>
<path d="M418.866 368.665C418.356 365.375 417.846 362.025 418.406 358.745C418.966 355.465 420.776 352.215 423.786 350.795C425.822 350.013 427.998 349.666 430.176 349.775L433.356 349.715C444.826 349.515 456.296 349.305 467.766 349.085C470.796 349.025 473.826 348.975 476.856 348.915C479.226 348.875 481.776 348.875 483.726 350.225C486.316 352.005 486.996 355.555 486.866 358.695C486.736 361.835 484.686 363.995 485.426 367.055" stroke="#171717" stroke-width="3" stroke-linecap="round" stroke-linejoin="round"/>
<path d="M485.426 367.056C505.696 368.826 526.196 360.216 540.686 345.926C555.176 331.636 563.936 312.146 567.206 292.066C570.476 271.986 568.516 251.296 563.756 231.506C562.496 226.256 561.156 220.276 564.196 215.806C564.334 215.598 564.485 215.397 564.646 215.206C566.976 212.296 570.806 210.926 574.426 209.806C581.566 207.606 588.936 205.696 596.406 205.966C597.456 206.006 598.506 206.086 599.556 206.226C605.976 207.056 612.226 209.736 616.396 214.636C623.326 222.786 622.986 234.726 621.706 245.356C616.316 290.296 603.376 330.666 582.256 370.706" stroke="#171717" stroke-width="3" stroke-linecap="round" stroke-linejoin="round"/>
<path d="M419.315 369.886L418.665 369.766C395.625 365.566 369.825 373.586 352.365 389.166C344.167 396.555 337.366 405.359 332.285 415.156C326.444 426.366 322.629 438.519 321.015 451.056C319.538 462.038 319.831 473.187 321.885 484.076C323.485 492.527 326.358 500.686 330.405 508.276C330.595 508.656 330.805 509.036 331.015 509.406C337.817 521.621 348.001 531.611 360.345 538.176C362.494 539.299 364.708 540.294 366.975 541.156C370.474 542.504 374.094 543.515 377.785 544.176C387.595 545.936 398.855 544.736 405.655 537.436C405.955 537.116 406.245 536.786 406.515 536.446C411.185 530.756 412.555 522.936 413.035 515.526C413.575 507.446 412.745 498.306 408.365 491.926C406.942 489.822 405.083 488.049 402.915 486.726C400.926 485.56 398.766 484.713 396.515 484.216C390.645 482.826 384.185 482.906 378.685 480.316C376.707 479.373 374.893 478.116 373.315 476.596C369.987 473.321 367.558 469.243 366.265 464.756C364.305 458.206 364.415 451.216 365.185 444.416C366.195 435.406 368.615 425.986 375.165 419.706C381.545 413.586 390.695 411.506 399.345 409.686C404.935 408.506 410.528 407.329 416.125 406.156L582.345 371.146C591.145 369.296 599.945 367.443 608.745 365.586" stroke="#171717" stroke-width="3" stroke-linecap="round" stroke-linejoin="round"/>
<path d="M608.967 365.886C604.181 371.171 599.707 376.731 595.567 382.536C591.113 388.711 587.679 395.562 585.397 402.826C582.247 413.386 581.777 425.026 584.947 435.486C586.06 439.199 587.664 442.747 589.717 446.036C593.347 451.826 598.867 456.946 605.637 457.916C606.902 458.096 608.184 458.126 609.457 458.006C614.724 457.396 619.593 454.903 623.167 450.986C627.637 446.226 630.247 440.006 631.967 433.706C634.838 423.121 635.435 412.048 633.717 401.216C632.747 395.146 630.647 388.636 625.437 385.396C623.533 384.244 621.378 383.574 619.157 383.446C617.181 383.313 615.197 383.529 613.297 384.086C609.291 385.381 605.677 387.665 602.787 390.726C598.842 394.752 595.848 399.609 594.022 404.941C592.197 410.274 591.587 415.947 592.237 421.546C592.527 424.854 593.626 428.041 595.437 430.826C597.021 433.154 599.43 434.795 602.177 435.416C602.68 435.523 603.192 435.58 603.707 435.586C608.357 435.646 612.257 431.906 614.357 427.756C616.168 424.076 617.008 419.995 616.798 415.9C616.588 411.804 615.334 407.83 613.157 404.356" stroke="#171717" stroke-width="3" stroke-linecap="round" stroke-linejoin="round"/>
<path d="M612.725 404.1C612.265 404.16 611.815 404.21 611.355 404.26C605.715 404.878 600.029 404.951 594.375 404.48" stroke="#171717" stroke-width="3" stroke-linecap="round" stroke-linejoin="round"/>
<path d="M619.176 383.205C610.226 381.805 603.386 382.935 595.566 382.535C595.523 382.527 595.479 382.524 595.436 382.525" stroke="#171717" stroke-width="3" stroke-linecap="round" stroke-linejoin="round"/>
<path d="M609.466 458.115C585.126 462.705 560.456 464.735 535.676 465.815C489.456 467.845 442.836 466.605 397.126 472.675C389.166 473.725 381.239 475.019 373.346 476.555" stroke="#171717" stroke-width="3" stroke-linecap="round" stroke-linejoin="round"/>
<path d="M330.555 414.235C296.592 422.377 261.934 427.286 227.045 428.895C214.555 429.465 200.795 430.105 191.685 438.675C182.735 447.105 181.115 461.015 183.735 473.035C185.635 481.745 190.005 490.615 197.965 494.635C204.295 497.845 211.785 497.455 218.865 496.885C253.315 494.155 287.535 489.125 321.725 484.105" stroke="#171717" stroke-width="3" stroke-linecap="round" stroke-linejoin="round"/>
<path d="M397.056 472.355C397.086 472.465 397.106 472.565 397.126 472.675C397.958 476.311 397.795 480.104 396.656 483.655" stroke="#171717" stroke-width="3" stroke-linecap="round" stroke-linejoin="round"/>
<path d="M330.256 508.355C331.216 516.815 323.716 524.715 316.106 528.545C308.496 532.375 299.666 532.815 291.146 532.805C282.626 532.795 273.946 532.405 265.766 534.765C253.776 538.225 244.016 547.415 237.796 558.235C231.666 568.885 226.646 581.465 224.766 593.635C224.726 593.815 224.706 593.995 224.676 594.175" stroke="#171717" stroke-width="3" stroke-linecap="round" stroke-linejoin="round"/>
<path d="M225.286 593.725C233.656 586.315 242.029 578.905 250.406 571.495C251.499 583.507 253.872 595.368 257.486 606.875" stroke="#171717" stroke-width="3" stroke-linecap="round" stroke-linejoin="round"/>
<path d="M258.025 607.405C258.055 607.275 258.085 607.135 258.105 607.005C260.995 593.175 264.985 577.475 276.815 569.805C289.435 561.625 305.885 564.135 320.725 561.695C336.13 559.084 350.071 550.99 359.975 538.905" stroke="#171717" stroke-width="3" stroke-linecap="round" stroke-linejoin="round"/>
<path d="M396.426 471.485C391.552 460.09 390.868 447.337 394.496 435.486C398.123 423.635 405.828 413.45 416.246 406.735" stroke="#171717" stroke-width="3" stroke-linecap="round" stroke-linejoin="round"/>
<path d="M366.855 541.465C350.624 575.03 326.979 604.467 297.705 627.555C289.835 633.745 281.035 640.255 278.625 649.975C276.695 657.765 279.475 666.125 284.205 672.605C288.635 678.696 294.625 683.415 300.665 687.935L301.865 688.835C327.045 707.585 353.385 725.855 383.465 734.835C385.525 735.455 387.605 736.019 389.705 736.525C418.275 743.515 450.075 740.945 473.595 723.564C484.685 715.364 494.575 703.744 508.265 702.015C523.885 700.045 538.035 711.855 553.715 713.275C558.754 713.693 563.825 713.14 568.655 711.645C580.785 708.035 591.885 699.455 601.945 691.215C614.155 681.215 627.345 669.315 629.565 654.085C629.748 652.836 629.855 651.577 629.885 650.314C630.285 632.835 615.935 619.034 603.085 607.174C582.925 588.574 563.505 568.594 550.205 544.604C536.905 520.614 529.185 492.874 535.695 466.234" stroke="#171717" stroke-width="3" stroke-linecap="round" stroke-linejoin="round"/>
<path d="M409.086 491.415C415.626 489.575 422.163 487.728 428.696 485.875C430.314 485.274 432.054 485.075 433.766 485.295C435.446 485.655 437.026 487.135 436.856 488.845C436.617 490.028 435.947 491.079 434.976 491.795C430.426 495.875 424.446 499.155 418.336 499.355" stroke="#171717" stroke-width="3" stroke-linecap="round" stroke-linejoin="round"/>
<path d="M406.906 536.766C420.837 538.787 434.987 538.784 448.916 536.756C452.396 536.246 456.016 535.546 458.776 533.366C459.401 532.937 459.925 532.377 460.313 531.727C460.702 531.076 460.945 530.349 461.026 529.596C460.968 528.706 460.653 527.852 460.118 527.139C459.584 526.425 458.854 525.882 458.016 525.576C456.814 525.109 455.536 524.868 454.246 524.866C453.756 524.846 453.266 524.836 452.776 524.836C441.816 524.756 430.86 524.702 419.906 524.676" stroke="#171717" stroke-width="3" stroke-linecap="round" stroke-linejoin="round"/>
<path d="M454.265 524.446C455.912 524.099 457.488 523.474 458.925 522.596C459.729 522.167 460.383 521.502 460.799 520.691C461.215 519.879 461.372 518.96 461.251 518.056C461.129 517.153 460.733 516.308 460.117 515.636C459.501 514.964 458.694 514.496 457.805 514.296C456.277 513.797 454.667 513.6 453.065 513.716C452.765 513.716 452.475 513.726 452.175 513.736L421.555 514.636" stroke="#171717" stroke-width="3" stroke-linecap="round" stroke-linejoin="round"/>
<path d="M453.056 513.145C455.676 512.085 458.786 510.285 458.516 507.465C458.276 504.835 455.236 503.545 452.656 502.995C441.386 500.615 429.556 501.945 418.336 499.355" stroke="#171717" stroke-width="3" stroke-linecap="round" stroke-linejoin="round"/>
<path d="M564.285 214.446C556.145 210.061 548.672 204.535 542.095 198.036C541.073 197.122 540.22 196.036 539.575 194.826C539.258 194.215 539.094 193.537 539.098 192.848C539.101 192.16 539.272 191.483 539.595 190.876C540.915 188.716 544.075 188.906 546.545 189.496C553.064 191.081 559.3 193.658 565.035 197.136" stroke="#171717" stroke-width="3" stroke-linecap="round" stroke-linejoin="round"/>
<path d="M599.655 205.536C605.675 188.576 610.075 170.606 608.425 152.686C608.368 150.863 607.914 149.075 607.095 147.446C606.675 146.637 606.031 145.966 605.24 145.512C604.45 145.058 603.545 144.841 602.635 144.886C600.395 145.166 599.005 147.406 598.055 149.446C594.105 157.866 591.935 166.926 590.405 176.136C589.615 180.906 588.985 185.716 588.375 190.496" stroke="#171717" stroke-width="3" stroke-linecap="round" stroke-linejoin="round"/>
<path d="M590.3 176.116C592.008 166.603 592.022 156.863 590.34 147.346C590.05 145.716 589.6 143.916 588.22 143.006C586.56 141.926 584.22 142.656 582.9 144.126C581.688 145.697 580.899 147.552 580.61 149.516C578.902 157.572 577.915 165.764 577.66 173.996C577.41 179.856 577.37 185.726 577.33 191.576C577.56 191.056 577.79 190.526 578.03 189.996" stroke="#171717" stroke-width="3" stroke-linecap="round" stroke-linejoin="round"/>
<path d="M576.815 175.406L576.875 173.966C577.076 166.674 575.733 159.422 572.935 152.686C572.338 150.986 571.348 149.45 570.045 148.206C569.381 147.597 568.549 147.202 567.658 147.07C566.767 146.938 565.857 147.076 565.045 147.466C562.885 148.726 562.805 151.766 562.995 154.256C564.055 168.506 565.118 182.752 566.185 196.996" stroke="#171717" stroke-width="3" stroke-linecap="round" stroke-linejoin="round"/>
<path d="M300.736 687.766C300.716 687.826 300.686 687.886 300.666 687.936C298.836 692.316 293.586 694.456 288.826 694.266C284.006 694.076 279.486 692.036 274.956 690.366C270.426 688.696 265.496 687.336 260.826 688.546C256.776 689.586 253.536 692.386 250.766 695.616C249.856 696.676 248.996 697.796 248.176 698.906C240.443 709.41 234.419 721.071 230.326 733.456C228.636 738.566 227.276 744.046 228.496 749.286C229.119 751.909 230.318 754.362 232.006 756.466C236.236 761.826 243.236 765.366 249.926 767.626C268.286 773.856 288.116 775.126 307.346 772.756C326.576 770.386 345.256 764.466 363.006 756.676C373.246 752.186 383.716 746.606 389.566 737.086" stroke="#171717" stroke-width="3" stroke-linecap="round" stroke-linejoin="round"/>
<path d="M629.866 654.126L677.6 709.9C684.28 717.72 691.24 726.09 692.87 736.24C693.57 740.854 693.208 745.568 691.81 750.021C690.359 754.763 688.017 759.186 684.91 763.051C678.92 770.551 670.66 775.951 662 780.081C659.558 781.252 657.054 782.29 654.5 783.191C643.72 786.971 631.88 788.141 622.09 782.721C614.74 778.651 609.71 771.491 604.94 764.581C592.91 747.141 580.877 729.704 568.84 712.271" stroke="#171717" stroke-width="3" stroke-linecap="round" stroke-linejoin="round"/>
<path d="M250.166 695.115C245.146 692.745 240.066 690.355 234.636 689.195C229.206 688.035 223.306 688.175 218.376 690.725C214.266 692.845 211.136 696.435 208.116 699.935C197.936 711.735 187.749 723.535 177.556 735.335C173.856 739.615 170.036 744.135 168.716 749.645C167.416 755.085 168.766 760.895 171.316 765.885C173.866 770.875 177.556 775.165 181.206 779.415C184.696 783.485 189.146 787.935 194.456 787.215C197.646 786.785 200.246 784.525 202.636 782.374C212.146 773.794 221.653 765.221 231.156 756.655" stroke="#171717" stroke-width="3" stroke-linecap="round" stroke-linejoin="round"/>
<path d="M654.199 782.716C654.299 782.876 654.399 783.026 654.499 783.186C659.049 790.386 663.596 797.592 668.139 804.806C671.689 810.436 675.619 816.396 681.759 818.956C688.109 821.606 695.339 820.026 702.029 818.406C712.339 815.906 722.643 813.409 732.939 810.916C741.089 808.947 749.629 806.756 755.699 800.976C762.259 794.726 764.719 785.436 766.899 776.646C767.499 774.226 768.099 771.656 767.309 769.306C765.939 765.206 761.109 763.496 756.839 762.856C745.789 761.186 734.519 762.846 723.339 762.466C712.159 762.086 700.209 759.106 693.139 750.436" stroke="#171717" stroke-width="3" stroke-linecap="round" stroke-linejoin="round"/>
<path d="M602.145 435.599C596.495 435.539 590.845 435.476 585.195 435.409" stroke="#171717" stroke-width="3" stroke-linecap="round" stroke-linejoin="round"/>
<path d="M227.671 325.058L240.582 321.516C240.776 321.462 240.982 321.469 241.171 321.536C241.361 321.603 241.526 321.727 241.643 321.891C241.76 322.054 241.824 322.25 241.826 322.451C241.828 322.653 241.768 322.85 241.654 323.016L234.147 334.1C234.038 334.26 233.98 334.449 233.978 334.643C233.977 334.837 234.033 335.027 234.14 335.189L241.498 346.374C241.608 346.541 241.664 346.739 241.659 346.939C241.654 347.14 241.587 347.334 241.468 347.495C241.349 347.657 241.184 347.778 240.994 347.843C240.804 347.907 240.598 347.912 240.406 347.856L227.543 344.142C227.357 344.088 227.158 344.091 226.974 344.149C226.789 344.208 226.626 344.32 226.505 344.472L218.141 354.926C218.016 355.083 217.845 355.197 217.653 355.254C217.461 355.311 217.256 355.308 217.065 355.245C216.875 355.181 216.708 355.061 216.588 354.901C216.468 354.74 216.4 354.546 216.394 354.346L215.952 340.965C215.945 340.771 215.882 340.583 215.769 340.426C215.656 340.268 215.499 340.147 215.318 340.079L202.791 335.355C202.603 335.284 202.442 335.158 202.329 334.992C202.215 334.827 202.155 334.631 202.156 334.431C202.158 334.23 202.22 334.035 202.336 333.871C202.451 333.708 202.614 333.583 202.803 333.515L215.392 328.959C215.574 328.893 215.733 328.774 215.848 328.618C215.963 328.462 216.029 328.276 216.038 328.082L216.659 314.708C216.668 314.508 216.739 314.315 216.861 314.156C216.983 313.997 217.151 313.879 217.342 313.818C217.533 313.758 217.738 313.757 217.929 313.817C218.121 313.876 218.29 313.993 218.413 314.151L226.636 324.717C226.756 324.869 226.918 324.983 227.102 325.044C227.286 325.104 227.484 325.109 227.671 325.058V325.058Z" stroke="#171717" stroke-width="3" stroke-miterlimit="10"/>
<path d="M379.822 207.711L394.591 209.863C394.81 209.88 395.02 209.963 395.191 210.101C395.363 210.239 395.49 210.426 395.554 210.636C395.619 210.847 395.619 211.072 395.554 211.283C395.489 211.493 395.363 211.68 395.191 211.818L383.444 219.518C383.273 219.633 383.143 219.799 383.073 219.993C383.003 220.187 382.996 220.398 383.055 220.596L386.855 234.923C386.91 235.134 386.896 235.358 386.813 235.56C386.73 235.763 386.584 235.933 386.396 236.044C386.209 236.156 385.989 236.204 385.772 236.181C385.555 236.157 385.351 236.063 385.192 235.914L373.014 226.584C372.847 226.45 372.645 226.367 372.432 226.344C372.22 226.321 372.005 226.359 371.814 226.455L359.39 233.155C359.19 233.248 358.967 233.283 358.748 233.256C358.529 233.228 358.322 233.139 358.152 232.998C357.981 232.858 357.854 232.672 357.785 232.462C357.716 232.252 357.709 232.027 357.763 231.813L361.984 218.342C362.041 218.135 362.039 217.916 361.976 217.711C361.913 217.506 361.792 217.323 361.629 217.185L350.156 207.001C349.978 206.872 349.848 206.69 349.783 206.481C349.719 206.272 349.724 206.048 349.798 205.843C349.872 205.637 350.011 205.461 350.194 205.341C350.377 205.222 350.594 205.165 350.813 205.18L365.6 206.18C365.805 206.199 366.011 206.153 366.188 206.047C366.365 205.941 366.503 205.782 366.584 205.593L371.917 192.593C372.019 192.398 372.178 192.238 372.372 192.134C372.567 192.031 372.788 191.988 373.007 192.011C373.226 192.034 373.433 192.123 373.601 192.265C373.769 192.408 373.89 192.597 373.95 192.81L378.868 206.902C378.938 207.11 379.065 207.296 379.233 207.438C379.401 207.58 379.604 207.675 379.822 207.711V207.711Z" fill="#171717"/>
<path d="M683.55 210.46L696.968 212.415C697.168 212.431 697.358 212.507 697.513 212.633C697.669 212.758 697.783 212.927 697.842 213.119C697.901 213.31 697.901 213.514 697.842 213.705C697.783 213.896 697.668 214.066 697.512 214.191L686.839 221.191C686.684 221.295 686.566 221.446 686.503 221.623C686.439 221.799 686.433 221.99 686.486 222.17L689.934 235.187C689.985 235.379 689.972 235.582 689.896 235.766C689.821 235.95 689.688 236.104 689.518 236.206C689.347 236.307 689.148 236.351 688.951 236.329C688.753 236.308 688.568 236.223 688.423 236.087L677.359 227.61C677.208 227.488 677.024 227.412 676.83 227.391C676.636 227.37 676.441 227.406 676.266 227.493L664.978 233.583C664.797 233.668 664.594 233.7 664.395 233.675C664.196 233.65 664.008 233.569 663.853 233.441C663.698 233.313 663.583 233.144 663.52 232.953C663.458 232.762 663.451 232.558 663.5 232.363L667.335 220.124C667.388 219.936 667.386 219.737 667.328 219.551C667.271 219.365 667.162 219.199 667.013 219.073L656.589 209.82C656.428 209.703 656.31 209.537 656.251 209.347C656.193 209.157 656.198 208.954 656.266 208.767C656.334 208.58 656.46 208.42 656.627 208.312C656.794 208.203 656.991 208.152 657.189 208.166L670.623 209.079C670.81 209.097 670.997 209.055 671.158 208.959C671.318 208.863 671.444 208.718 671.517 208.546L676.362 196.738C676.456 196.561 676.601 196.416 676.777 196.323C676.954 196.229 677.155 196.19 677.354 196.212C677.553 196.233 677.74 196.314 677.893 196.444C678.046 196.573 678.156 196.745 678.209 196.938L682.677 209.738C682.745 209.925 682.862 210.091 683.015 210.218C683.169 210.345 683.354 210.429 683.55 210.46V210.46Z" stroke="white" stroke-width="3" stroke-miterlimit="10"/>
<path d="M696.768 472.073L708.475 474.361C708.65 474.395 708.811 474.482 708.936 474.611C709.06 474.739 709.142 474.902 709.171 475.079C709.2 475.255 709.173 475.436 709.096 475.597C709.019 475.759 708.894 475.892 708.738 475.98L698.355 481.852C698.205 481.937 698.083 482.065 698.005 482.219C697.928 482.373 697.897 482.547 697.918 482.718L699.359 494.559C699.381 494.736 699.347 494.916 699.264 495.074C699.18 495.232 699.05 495.36 698.891 495.442C698.732 495.523 698.552 495.555 698.375 495.531C698.198 495.507 698.033 495.43 697.901 495.309L689.108 487.249C688.981 487.132 688.822 487.056 688.651 487.029C688.48 487.003 688.306 487.028 688.149 487.101L677.333 492.131C677.171 492.206 676.99 492.23 676.814 492.2C676.638 492.169 676.475 492.085 676.349 491.959C676.222 491.833 676.137 491.671 676.104 491.496C676.072 491.32 676.095 491.139 676.169 490.976L681.117 480.122C681.189 479.965 681.212 479.79 681.185 479.62C681.157 479.449 681.08 479.291 680.962 479.164L672.836 470.432C672.714 470.301 672.635 470.136 672.61 469.959C672.585 469.782 672.615 469.602 672.695 469.442C672.776 469.283 672.903 469.152 673.061 469.067C673.218 468.982 673.397 468.948 673.575 468.968L685.426 470.32C685.598 470.34 685.771 470.308 685.925 470.229C686.078 470.15 686.205 470.027 686.289 469.876L692.083 459.449C692.17 459.293 692.302 459.167 692.463 459.089C692.623 459.01 692.804 458.983 692.98 459.01C693.156 459.037 693.32 459.118 693.45 459.241C693.579 459.364 693.667 459.524 693.703 459.699L696.08 471.388C696.114 471.558 696.197 471.713 696.32 471.835C696.442 471.957 696.598 472.04 696.768 472.073V472.073Z" fill="white"/>
<path d="M343.557 353.169L325.723 335.712" stroke="#171717" stroke-width="3" stroke-linecap="round" stroke-linejoin="round"/>
<path d="M324.34 356.1C327.799 348.663 332.341 341.778 337.817 335.672" stroke="#171717" stroke-width="3" stroke-linecap="round" stroke-linejoin="round"/>
<path d="M487.758 203.464L498.669 180.322" stroke="#171717" stroke-width="3" stroke-linecap="round" stroke-linejoin="round"/>
<path d="M499.469 197.251C493.498 192.383 488.153 186.794 483.555 180.612" stroke="#171717" stroke-width="3" stroke-linecap="round" stroke-linejoin="round"/>
<path d="M598.884 521.354L584.791 502.982" stroke="#171717" stroke-width="3" stroke-linecap="round" stroke-linejoin="round"/>
<path d="M582.574 521.175L597.665 500.904" stroke="#171717" stroke-width="3" stroke-linecap="round" stroke-linejoin="round"/>
<path d="M715.254 639.335L697.654 619.526" stroke="white" stroke-width="3" stroke-linecap="round" stroke-linejoin="round"/>
<path d="M699.166 640.565L711.999 620.886" stroke="white" stroke-width="3" stroke-linecap="round" stroke-linejoin="round"/>
<path d="M219.38 546.509L207.22 535.39" stroke="white" stroke-width="3" stroke-linecap="round" stroke-linejoin="round"/>
<path d="M205.789 549.528C209.868 545.027 212.99 539.744 214.965 534" stroke="white" stroke-width="3" stroke-linecap="round" stroke-linejoin="round"/>
<path d="M345.735 157.627C321.857 155.48 296.709 160.127 277.383 174.313C258.057 188.499 245.7 213.141 249.754 236.769C253.808 260.397 276.427 280.499 300.3 278.309C309.2 277.491 318.958 272.401 320.327 263.566C321.269 257.483 317.791 251.382 312.965 247.559C308.858 244.306 303.858 242.381 298.629 242.04C293.401 241.7 288.193 242.96 283.699 245.653C279.204 248.346 275.637 252.344 273.472 257.115C271.306 261.886 270.645 267.204 271.577 272.359C274.353 287.7 290.499 298.883 290.577 314.474C290.635 326.168 279.635 336.729 267.953 336.195" stroke="white" stroke-width="3" stroke-linecap="round" stroke-linejoin="round"/>
<path d="M738.557 420.523C753.781 430.579 766.556 443.918 775.945 459.561C789.558 482.291 795.012 512.319 781.291 534.984C776.153 543.472 768.243 550.619 758.657 553.178C749.071 555.737 737.844 553.012 731.692 545.227C725.54 537.442 726.033 524.706 733.752 518.473C742.718 511.233 757.264 515.473 763.909 524.887C770.554 534.301 770.809 546.887 768.454 558.172C766.099 569.457 761.437 580.147 759.018 591.414C756.599 602.681 756.707 615.249 763.192 624.774C769.677 634.299 784.08 638.859 793.246 631.874" stroke="#171717" stroke-width="3" stroke-linecap="round" stroke-linejoin="round"/>
<path d="M644.848 372.352L654.024 353.293" stroke="#171717" stroke-width="3" stroke-linecap="round" stroke-linejoin="round"/>
<path d="M652.613 389.293L723.907 347.646" stroke="#171717" stroke-width="3" stroke-linecap="round" stroke-linejoin="round"/>
<path d="M663.906 404.116L684.376 413.292" stroke="#171717" stroke-width="3" stroke-linecap="round" stroke-linejoin="round"/>
<path d="M176.819 712.572C182.027 702.796 189.338 694.296 198.225 687.684C207.112 681.072 217.354 676.512 228.214 674.333" stroke="#171717" stroke-width="3" stroke-linecap="round" stroke-linejoin="round"/>
<path d="M181.052 691.394C183.259 687.162 186.726 683.719 190.973 681.541" stroke="#171717" stroke-width="3" stroke-linecap="round" stroke-linejoin="round"/>
<path d="M275.729 591.9C276.975 587.523 279.525 583.63 283.039 580.739C286.554 577.848 290.866 576.096 295.401 575.718" stroke="#171717" stroke-width="3" stroke-linecap="round" stroke-linejoin="round"/>
<path d="M620.77 801.763C612.555 798.934 605.194 794.062 599.38 787.605C593.567 781.147 589.492 773.317 587.539 764.851" stroke="#171717" stroke-width="3" stroke-linecap="round" stroke-linejoin="round"/>
<path d="M597.593 801.368C594.061 800.427 590.882 798.474 588.446 795.749C586.01 793.024 584.424 789.647 583.883 786.032" stroke="#171717" stroke-width="3" stroke-linecap="round" stroke-linejoin="round"/>
<path d="M175.489 439.164C180.175 426.764 194.159 418.615 207.261 420.664" stroke="#171717" stroke-width="3" stroke-linecap="round" stroke-linejoin="round"/>
<path d="M620.791 181.031C623.734 174.53 625.096 167.425 624.767 160.297C624.438 153.169 622.427 146.22 618.898 140.019" stroke="#171717" stroke-width="3" stroke-linecap="round" stroke-linejoin="round"/>
<path d="M633.57 169.062C635.027 162.882 634.27 156.387 631.43 150.708" stroke="#171717" stroke-width="3" stroke-linecap="round" stroke-linejoin="round"/>
<path d="M414.756 233.469C411.524 232.824 408.194 232.837 404.968 233.509C401.741 234.181 398.684 235.498 395.978 237.38C393.272 239.262 390.975 241.671 389.222 244.463C387.47 247.254 386.299 250.371 385.781 253.625C384.429 262.105 387.567 270.561 389.986 278.8C392.405 287.039 394.045 296.312 390.023 303.9C387.931 307.618 384.663 310.535 380.733 312.193C376.803 313.851 372.433 314.156 368.311 313.06" stroke="white" stroke-width="3" stroke-linecap="round" stroke-linejoin="round"/>
<path d="M358.861 317.523C361.732 315.683 364.899 314.352 368.222 313.589" stroke="white" stroke-width="3" stroke-linecap="round" stroke-linejoin="round"/>
<path d="M367.108 313.158L359.141 310.924" stroke="white" stroke-width="3" stroke-linecap="round" stroke-linejoin="round"/>
<path d="M368.164 311.818C366.764 309.875 362.964 307.684 362.75 307.571" stroke="white" stroke-width="3" stroke-linecap="round" stroke-linejoin="round"/>
<path d="M644.142 716.821L638.5 706.939" stroke="#171717" stroke-width="3" stroke-linecap="round" stroke-linejoin="round"/>
<path d="M608.847 714.704L603.416 704.955L604.616 706.94" stroke="#171717" stroke-width="3" stroke-linecap="round" stroke-linejoin="round"/>
<path d="M660.378 752.117L654.73 745.764" stroke="#171717" stroke-width="3" stroke-linecap="round" stroke-linejoin="round"/>
<path d="M634.26 748.586C632.848 746.468 631.437 744.351 630.025 742.233" stroke="#171717" stroke-width="3" stroke-linecap="round" stroke-linejoin="round"/>
<path d="M619.3 767.734C617.352 764.718 615.404 761.701 613.455 758.685" stroke="#171717" stroke-width="3" stroke-linecap="round" stroke-linejoin="round"/>
<path d="M303.136 706.169C300.574 708.672 297.436 710.508 293.999 711.516C290.562 712.523 286.93 712.672 283.422 711.948" stroke="#171717" stroke-width="3" stroke-linecap="round" stroke-linejoin="round"/>
<path d="M331.37 751.353C330.065 752.82 328.417 753.942 326.573 754.619C324.73 755.295 322.747 755.505 320.803 755.229" stroke="#171717" stroke-width="3" stroke-linecap="round" stroke-linejoin="round"/>
<path d="M308.847 730.233C305.304 731.81 301.374 732.301 297.553 731.645" stroke="#171717" stroke-width="3" stroke-linecap="round" stroke-linejoin="round"/>
<path d="M260.848 752.83C259.42 753.044 257.962 752.896 256.607 752.4C255.251 751.904 254.042 751.076 253.09 749.991" stroke="#171717" stroke-width="3" stroke-linecap="round" stroke-linejoin="round"/>
<path d="M259.278 721.484L250.287 718.158" stroke="#171717" stroke-width="3" stroke-linecap="round" stroke-linejoin="round"/>
<g opacity="0.1">
<path d="M438.901 349.049C440.548 342.58 439.709 335.735 439.689 329.132C439.661 322.384 440.964 315.697 443.523 309.454C448.242 297.595 453.981 286.229 451.841 273.104C450.781 266.604 439.801 269.33 441.806 275.871C445.66 288.446 437.823 299.905 434.291 311.584C430.724 323.384 432.619 336.033 432.386 348.168C432.315 351.892 437.974 352.692 438.901 349.049V349.049Z" fill="#171717"/>
</g>
<g opacity="0.1">
<path d="M183.006 461.739C178.367 464.31 178.883 470.224 180.206 474.72C181.659 479.664 185.587 483.944 189.42 487.209C200.655 496.777 214.03 496.753 228.007 495.316C243.145 493.76 258.255 491.947 273.335 489.878C280.78 488.858 288.221 487.815 295.659 486.75C302.903 485.711 312.725 485.916 318.952 481.938C325.433 477.798 324.54 467.444 316.78 465.317C310.309 463.544 302.788 465.924 296.24 466.908C289.784 467.879 283.324 468.832 276.862 469.767C264.272 471.59 251.688 473.44 239.108 475.319C227.442 477.068 215.892 479.328 204.048 478.784C199.04 478.554 194.771 477.004 191.712 472.856C189.187 469.433 188.948 465.066 185.961 462.12C185.575 461.748 185.079 461.51 184.547 461.441C184.015 461.373 183.475 461.477 183.007 461.739H183.006Z" fill="#171717"/>
</g>
<g opacity="0.1">
<path d="M370.893 473.732C380.468 477.01 389.807 475.6 399.712 474.875C408.889 474.204 418.04 473.164 427.206 472.355C446.206 470.677 465.236 469.344 484.274 468.169C503.312 466.994 522.38 466.147 541.451 465.55C550.737 465.259 559.851 464.156 569.076 463.332C578.832 462.461 588.635 462.911 598.215 460.672C603.629 459.406 603.615 451.012 598.215 449.733C588.63 447.462 578.851 447.996 569.076 447.383C559.822 446.802 550.752 446.083 541.451 446.322C522.051 446.816 502.659 447.695 483.289 448.85C464.24 449.987 445.217 451.574 426.223 453.414C416.55 454.352 406.866 455.261 397.243 456.632C387.462 458.026 378.128 458.826 369.661 464.308C368.813 464.839 368.135 465.603 367.708 466.508C367.281 467.413 367.123 468.422 367.253 469.415C367.383 470.407 367.795 471.342 368.44 472.107C369.086 472.872 369.937 473.436 370.893 473.732V473.732Z" fill="#171717"/>
</g>
<g opacity="0.1">
<path d="M250.532 703.32C252.593 701.488 254.281 699.555 257.215 699.399C260.491 699.224 260.361 700.069 263.015 701.267C268.725 703.963 274.718 706.014 280.882 707.383C290.369 709.263 306.606 705.515 305.824 692.995C305.564 688.832 300.724 684.904 296.714 687.768C293.19 690.284 290.482 692.734 285.927 692.753C280.027 692.778 274.395 689.944 268.521 689.401C261.656 688.766 248.57 693.49 246.774 701.131C246.658 701.607 246.698 702.107 246.89 702.557C247.081 703.008 247.414 703.384 247.837 703.631C248.26 703.877 248.751 703.98 249.237 703.924C249.724 703.868 250.179 703.656 250.535 703.32H250.532Z" fill="#171717"/>
</g>
<g opacity="0.1">
<path d="M571.853 717.777C582.06 733.914 593.613 749.16 606.388 763.35C614.477 772.489 632.704 794.277 646.493 783.011C648.661 781.24 648.053 777.057 645.573 775.87C642.608 774.451 639.357 773.947 636.402 772.57C633.621 771.172 631.118 769.279 629.016 766.983C623.441 761.194 618.209 754.901 612.938 748.829C602.067 736.304 591.495 723.541 580.723 710.936C576.538 706.036 568.504 712.379 571.853 717.78V717.777Z" fill="#171717"/>
</g>
</g>
</g>
<defs>
<clipPath id="clip0_46_7749">
<rect width="960" height="960" fill="white"/>
</clipPath>
<clipPath id="clip1_46_7749">
<rect width="629" height="684" fill="white" transform="translate(166 138)"/>
</clipPath>
</defs>
</svg>
